<svg xmlns="http://www.w3.org/2000/svg" viewBox="0 0 256 283">
  <path fill="#EA4335" d="M119.553 134.916 1.06 259.061a32.06 32.06 0 0 0 47.062 19.071l133.327-75.934z"/>
  <path fill="#FBBC04" d="M239.37 113.814 181.686 80.463l-64.973 57.278 65.219 65.23 57.278-32.815a32 32 0 0 0 .16-56.342z"/>
  <path fill="#4285F4" d="M1.06 23.487A31.3 31.3 0 0 0 0 31.622v219.302c0 2.845.381 5.598 1.06 8.137l122.585-122.481z"/>
  <path fill="#34A853" d="M120.435 141.274 181.765 80.46 48.529 4.226A32.05 32.05 0 0 0 32.01 0C17.51 0 5.15 9.648 1.06 22.815c0 .227-.007.446 0 .672z"/>
</svg>
